# xmcd
#
# Track frame offsets:
#	150
#	12314
#	24693
#	37256
#	50953
#	63296
#	75599
#	88598
#	100893
#	112414
#	124556
#	137838
#	148646
#	160994
#	171787
#	184007
#	195624
#	207219
#	220322
#	232158
#
# Disc length: 3249 seconds
#
# Revision: 1
# Processed by: cddbd v1.5.2PL0 Copyright (c) Steve Scherf et al.
# Submitted via: audiograbber 1.83.01
#
DISCID=2c0caf14
DTITLE=Hank Williams - 40 Original Recordings Cd1
DYEAR=2010
DGENRE=Country
TTITLE0=Lost Highway
TTITLE1=Move It On Over
TTITLE2=I'm So Lonesome I Could Cry
TTITLE3=Ramblin' Man
TTITLE4=Honky Tonkin'
TTITLE5=Cold, Cold Heart
TTITLE6=Jambalaya (On The Bayou)
TTITLE7=Lovesick Blues
TTITLE8=My Bucket's Got A Hole In It
TTITLE9=The Blues Come Around
TTITLE10=You're Gonna Change (Or I'm Gonna Leave)
TTITLE11=Why Don't You Love Me?
TTITLE12=I Saw The Light
TTITLE13=Moanin' The Blues
TTITLE14=Half As Much
TTITLE15=Settin' The Woods On Fire
TTITLE16=Kaw-Liga
TTITLE17=Wedding Bells
TTITLE18=Long Gone Lonesome Blues
TTITLE19=You Win Again
EXTD=
EXTT0=
EXTT1=
EXTT2=
EXTT3=
EXTT4=
EXTT5=
EXTT6=
EXTT7=
EXTT8=
EXTT9=
EXTT10=
EXTT11=
EXTT12=
EXTT13=
EXTT14=
EXTT15=
EXTT16=
EXTT17=
EXTT18=
EXTT19=
PLAYORDER=
